<svg viewBox="0 0 330 200" xmlns="http://www.w3.org/2000/svg"><g><g><g><g><g><line x1="39.98800086975098" y1="177.60799980163574" x2="34.98800086975098" y2="177.60799980163574" style="visibility: inherit;" fill="rgb(0, 0, 0)" stroke="rgb(204, 204, 204)" stroke-width="1px"></line><line x1="39.98800086975098" y1="162.80733315149942" x2="34.98800086975098" y2="162.80733315149942" style="visibility: inherit;" fill="rgb(0, 0, 0)" stroke="rgb(204, 204, 204)" stroke-width="1px"></line><line x1="39.98800086975098" y1="148.0066665013631" x2="34.98800086975098" y2="148.0066665013631" style="visibility: inherit;" fill="rgb(0, 0, 0)" stroke="rgb(204, 204, 204)" stroke-width="1px"></line><line x1="39.98800086975098" y1="133.2059998512268" x2="34.98800086975098" y2="133.2059998512268" style="visibility: inherit;" fill="rgb(0, 0, 0)" stroke="rgb(204, 204, 204)" stroke-width="1px"></line><line x1="39.98800086975098" y1="118.40533320109049" x2="34.98800086975098" y2="118.40533320109049" style="visibility: inherit;" fill="rgb(0, 0, 0)" stroke="rgb(204, 204, 204)" stroke-width="1px"></line><line x1="39.98800086975098" y1="103.60466655095416" x2="34.98800086975098" y2="103.60466655095416" style="visibility: inherit;" fill="rgb(0, 0, 0)" stroke="rgb(204, 204, 204)" stroke-width="1px"></line><line x1="39.98800086975098" y1="88.80399990081787" x2="34.98800086975098" y2="88.80399990081787" style="visibility: inherit;" fill="rgb(0, 0, 0)" stroke="rgb(204, 204, 204)" stroke-width="1px"></line><line x1="39.98800086975098" y1="74.00333325068155" x2="34.98800086975098" y2="74.00333325068155" style="visibility: inherit;" fill="rgb(0, 0, 0)" stroke="rgb(204, 204, 204)" stroke-width="1px"></line><line x1="39.98800086975098" y1="59.202666600545236" x2="34.98800086975098" y2="59.202666600545236" style="visibility: inherit;" fill="rgb(0, 0, 0)" stroke="rgb(204, 204, 204)" stroke-width="1px"></line><line x1="39.98800086975098" y1="44.401999950408936" x2="34.98800086975098" y2="44.401999950408936" style="visibility: inherit;" fill="rgb(0, 0, 0)" stroke="rgb(204, 204, 204)" stroke-width="1px"></line><line x1="39.98800086975098" y1="29.601333300272618" x2="34.98800086975098" y2="29.601333300272618" style="visibility: inherit;" fill="rgb(0, 0, 0)" stroke="rgb(204, 204, 204)" stroke-width="1px"></line><line x1="39.98800086975098" y1="14.800666650136298" x2="34.98800086975098" y2="14.800666650136298" style="visibility: inherit;" fill="rgb(0, 0, 0)" stroke="rgb(204, 204, 204)" stroke-width="1px"></line><line x1="39.98800086975098" y1="0" x2="34.98800086975098" y2="0" style="visibility: inherit;" fill="rgb(0, 0, 0)" stroke="rgb(204, 204, 204)" stroke-width="1px"></line></g><g transform="translate(29.988000869750977, 0)"><text style="text-anchor: end; visibility: hidden; font-family: Roboto, sans-serif; font-size: 12px; font-weight: 200;" x="0" y="177.60799980163574" dx="0em" dy="0.3em" fill="rgb(255, 255, 255)" stroke="none" stroke-width="1px">0</text><text style="text-anchor: end; visibility: inherit; font-family: Roboto, sans-serif; font-size: 12px; font-weight: 200;" x="0" y="162.80733315149942" dx="0em" dy="0.3em" fill="rgb(255, 255, 255)" stroke="none" stroke-width="1px">0.1</text><text style="text-anchor: end; visibility: hidden; font-family: Roboto, sans-serif; font-size: 12px; font-weight: 200;" x="0" y="148.0066665013631" dx="0em" dy="0.3em" fill="rgb(255, 255, 255)" stroke="none" stroke-width="1px">0.2</text><text style="text-anchor: end; visibility: inherit; font-family: Roboto, sans-serif; font-size: 12px; font-weight: 200;" x="0" y="133.2059998512268" dx="0em" dy="0.3em" fill="rgb(255, 255, 255)" stroke="none" stroke-width="1px">0.3</text><text style="text-anchor: end; visibility: hidden; font-family: Roboto, sans-serif; font-size: 12px; font-weight: 200;" x="0" y="118.40533320109049" dx="0em" dy="0.3em" fill="rgb(255, 255, 255)" stroke="none" stroke-width="1px">0.4</text><text style="text-anchor: end; visibility: inherit; font-family: Roboto, sans-serif; font-size: 12px; font-weight: 200;" x="0" y="103.60466655095416" dx="0em" dy="0.3em" fill="rgb(255, 255, 255)" stroke="none" stroke-width="1px">0.5</text><text style="text-anchor: end; visibility: hidden; font-family: Roboto, sans-serif; font-size: 12px; font-weight: 200;" x="0" y="88.80399990081787" dx="0em" dy="0.3em" fill="rgb(255, 255, 255)" stroke="none" stroke-width="1px">0.6</text><text style="text-anchor: end; visibility: inherit; font-family: Roboto, sans-serif; font-size: 12px; font-weight: 200;" x="0" y="74.00333325068155" dx="0em" dy="0.3em" fill="rgb(255, 255, 255)" stroke="none" stroke-width="1px">0.7</text><text style="text-anchor: end; visibility: hidden; font-family: Roboto, sans-serif; font-size: 12px; font-weight: 200;" x="0" y="59.202666600545236" dx="0em" dy="0.3em" fill="rgb(255, 255, 255)" stroke="none" stroke-width="1px">0.8</text><text style="text-anchor: end; visibility: inherit; font-family: Roboto, sans-serif; font-size: 12px; font-weight: 200;" x="0" y="44.401999950408936" dx="0em" dy="0.3em" fill="rgb(255, 255, 255)" stroke="none" stroke-width="1px">0.9</text><text style="text-anchor: end; visibility: hidden; font-family: Roboto, sans-serif; font-size: 12px; font-weight: 200;" x="0" y="29.601333300272618" dx="0em" dy="0.3em" fill="rgb(255, 255, 255)" stroke="none" stroke-width="1px">1</text><text style="text-anchor: end; visibility: inherit; font-family: Roboto, sans-serif; font-size: 12px; font-weight: 200;" x="0" y="14.800666650136298" dx="0em" dy="0.3em" fill="rgb(255, 255, 255)" stroke="none" stroke-width="1px">1.1</text><text style="text-anchor: end; visibility: hidden; font-family: Roboto, sans-serif; font-size: 12px; font-weight: 200;" x="0" y="0" dx="0em" dy="0.3em" fill="rgb(255, 255, 255)" stroke="none" stroke-width="1px">1.2</text></g><line x1="39.98800086975098" y1="0" x2="39.98800086975098" y2="177.60799980163574" fill="rgb(0, 0, 0)" stroke="rgb(204, 204, 204)" stroke-width="1px"></line></g></g><g transform="translate(39, 0)" clip-path="url(#clip_0)"><clipPath id="clip_0"><rect width="290" height="177"></rect></clipPath><g><g><g><line x1="0" y1="0" x2="0" y2="177.60799980163574" fill="rgb(0, 0, 0)" stroke="rgb(189, 189, 189)" stroke-width="1px" opacity="0.25"></line><line x1="32.22355545891656" y1="0" x2="32.22355545891656" y2="177.60799980163574" fill="rgb(0, 0, 0)" stroke="rgb(189, 189, 189)" stroke-width="1px" opacity="0.25"></line><line x1="64.44711091783311" y1="0" x2="64.44711091783311" y2="177.60799980163574" fill="rgb(0, 0, 0)" stroke="rgb(189, 189, 189)" stroke-width="1px" opacity="0.25"></line><line x1="96.67066637674967" y1="0" x2="96.67066637674967" y2="177.60799980163574" fill="rgb(0, 0, 0)" stroke="rgb(189, 189, 189)" stroke-width="1px" opacity="0.25"></line><line x1="128.89422183566623" y1="0" x2="128.89422183566623" y2="177.60799980163574" fill="rgb(0, 0, 0)" stroke="rgb(189, 189, 189)" stroke-width="1px" opacity="0.25"></line><line x1="161.1177772945828" y1="0" x2="161.1177772945828" y2="177.60799980163574" fill="rgb(0, 0, 0)" stroke="rgb(189, 189, 189)" stroke-width="1px" opacity="0.25"></line><line x1="193.34133275349933" y1="0" x2="193.34133275349933" y2="177.60799980163574" fill="rgb(0, 0, 0)" stroke="rgb(189, 189, 189)" stroke-width="1px" opacity="0.25"></line><line x1="225.56488821241592" y1="0" x2="225.56488821241592" y2="177.60799980163574" fill="rgb(0, 0, 0)" stroke="rgb(189, 189, 189)" stroke-width="1px" opacity="0.25"></line><line x1="257.78844367133246" y1="0" x2="257.78844367133246" y2="177.60799980163574" fill="rgb(0, 0, 0)" stroke="rgb(189, 189, 189)" stroke-width="1px" opacity="0.25"></line><line x1="290.011999130249" y1="0" x2="290.011999130249" y2="177.60799980163574" fill="rgb(0, 0, 0)" stroke="rgb(189, 189, 189)" stroke-width="1px" opacity="0.25"></line></g><g><line x1="0" y1="177.60799980163574" x2="290.011999130249" y2="177.60799980163574" fill="rgb(0, 0, 0)" stroke="rgb(189, 189, 189)" stroke-width="1px" opacity="0.25"></line><line x1="0" y1="162.80733315149942" x2="290.011999130249" y2="162.80733315149942" fill="rgb(0, 0, 0)" stroke="rgb(189, 189, 189)" stroke-width="1px" opacity="0.25"></line><line x1="0" y1="148.0066665013631" x2="290.011999130249" y2="148.0066665013631" fill="rgb(0, 0, 0)" stroke="rgb(189, 189, 189)" stroke-width="1px" opacity="0.25"></line><line x1="0" y1="133.2059998512268" x2="290.011999130249" y2="133.2059998512268" fill="rgb(0, 0, 0)" stroke="rgb(189, 189, 189)" stroke-width="1px" opacity="0.25"></line><line x1="0" y1="118.40533320109049" x2="290.011999130249" y2="118.40533320109049" fill="rgb(0, 0, 0)" stroke="rgb(189, 189, 189)" stroke-width="1px" opacity="0.25"></line><line x1="0" y1="103.60466655095416" x2="290.011999130249" y2="103.60466655095416" fill="rgb(0, 0, 0)" stroke="rgb(189, 189, 189)" stroke-width="1px" opacity="0.25"></line><line x1="0" y1="88.80399990081787" x2="290.011999130249" y2="88.80399990081787" fill="rgb(0, 0, 0)" stroke="rgb(189, 189, 189)" stroke-width="1px" opacity="0.25"></line><line x1="0" y1="74.00333325068155" x2="290.011999130249" y2="74.00333325068155" fill="rgb(0, 0, 0)" stroke="rgb(189, 189, 189)" stroke-width="1px" opacity="0.25"></line><line x1="0" y1="59.202666600545236" x2="290.011999130249" y2="59.202666600545236" fill="rgb(0, 0, 0)" stroke="rgb(189, 189, 189)" stroke-width="1px" opacity="0.25"></line><line x1="0" y1="44.401999950408936" x2="290.011999130249" y2="44.401999950408936" fill="rgb(0, 0, 0)" stroke="rgb(189, 189, 189)" stroke-width="1px" opacity="0.25"></line><line x1="0" y1="29.601333300272618" x2="290.011999130249" y2="29.601333300272618" fill="rgb(0, 0, 0)" stroke="rgb(189, 189, 189)" stroke-width="1px" opacity="0.25"></line><line x1="0" y1="14.800666650136298" x2="290.011999130249" y2="14.800666650136298" fill="rgb(0, 0, 0)" stroke="rgb(189, 189, 189)" stroke-width="1px" opacity="0.25"></line><line x1="0" y1="0" x2="290.011999130249" y2="0" fill="rgb(0, 0, 0)" stroke="rgb(189, 189, 189)" stroke-width="1px" opacity="0.25"></line></g></g></g><g><g><line x1="0" y1="177.60799980163574" x2="290.011999130249" y2="177.60799980163574" fill="rgb(0, 0, 0)" stroke="rgb(153, 153, 153)" stroke-width="1.5px"></line></g></g><g><g><line x1="32.22355545891656" y1="0" x2="32.22355545891656" y2="177.60799980163574" fill="rgb(0, 0, 0)" stroke="rgb(153, 153, 153)" stroke-width="1.5px"></line></g></g><g><g><g><g><g><path style="fill: none;" stroke="rgb(0, 119, 187)" stroke-width="2px" d="M32.22355545891656,73.11687674470406L48.33533318837483,51.15794289202935L64.44711091783311,52.66335758390733L80.5588886472914,52.468188193272674L96.67066637674967,43.63868135207703L112.78244410620796,41.18899215719923L128.89422183566623,35.63998027942159L145.0059995651245,20.563554437597972L32.22355545891656,52.18270702495783L48.33533318837483,75.05140967826294L64.44711091783311,88.96828484858771L80.5588886472914,98.17101058416146L96.67066637674967,100.4378597165527L112.78244410620796,103.89467768832058L128.89422183566623,101.34754743680999L145.0059995651245,98.53240447078073L161.1177772945828,93.48011172693278L177.22955502404108,88.46544589517362L193.34133275349933,83.42365455835727L209.4531104829576,83.02759302792181L225.56488821241592,68.27554690173231L241.6766659418742,66.98758183763553L257.78844367133246,60.16698982188686L32.22355545891656,72.55830481251988L48.33533318837483,86.86364432031141L64.44711091783311,95.68995355513486L80.5588886472914,101.57155614050228L96.67066637674967,99.5395365471665L112.78244410620796,103.76689397858165L128.89422183566623,104.6150823849132L145.0059995651245,105.48705826065596L161.1177772945828,99.78008350484384L177.22955502404108,97.95359881227569L193.34133275349933,93.55155842840905L209.4531104829576,90.07693786670906L225.56488821241592,88.60566767196114L241.6766659418742,84.33760959295077L257.78844367133246,73.84441470929578" fill="none"></path></g><g><path style="fill: none;" stroke="rgb(255, 112, 67)" stroke-width="2px" d="M32.22355545891656,164.30507724156593L48.33533318837483,164.75564397940988L64.44711091783311,165.01437781997026L80.5588886472914,165.50696510777033L96.67066637674967,166.13312205708903L112.78244410620796,166.53969043776073L128.89422183566623,167.06238139747165L145.0059995651245,167.47426686636427L32.22355545891656,129.14304513004427L48.33533318837483,122.13357573199626L64.44711091783311,122.50239284090215L80.5588886472914,125.92328918488566L96.67066637674967,130.71133789275308L112.78244410620796,135.4481396403292L128.89422183566623,140.42225182297514L145.0059995651245,145.00681141678976L161.1177772945828,148.85088878026093L177.22955502404108,152.27928496557945L193.34133275349933,155.1594166612051L209.4531104829576,157.50515224524437L225.56488821241592,159.71379735163626L241.6766659418742,161.19576006142194L257.78844367133246,162.57762562526273L32.22355545891656,122.10941925120885L48.33533318837483,114.52986973653681L64.44711091783311,115.60024310397942L80.5588886472914,119.88950743223205L96.67066637674967,125.02115730674676L112.78244410620796,130.08326682782786L128.89422183566623,135.0358882269678L145.0059995651245,139.7119951748314L161.1177772945828,143.97421046432189L177.22955502404108,147.40266706149814L193.34133275349933,150.59121559914618L209.4531104829576,153.38446883547886L225.56488821241592,155.88821393273884L241.6766659418742,157.60870690680258L257.78844367133246,158.89999866645434" fill="none"></path></g></g></g></g><g opacity="0.2"><g><g><g><path style="fill: none;" stroke="rgb(0, 119, 187)" stroke-width="2px" d="M32.22355545891656,73.11687674470406L48.33533318837483,37.98258258042452L64.44711091783311,54.10855568811016L80.5588886472914,52.23866898988627L96.67066637674967,32.110877220212L112.78244410620796,37.80019011257315L128.89422183566623,27.7048045100095L145.0059995651245,-1.418019173468906L32.22355545891656,98.81481538711498L48.33533318837483,109.008767908339L64.44711091783311,109.71737257056199L80.5588886472914,111.92501836046142L96.67066637674967,103.8307317594149L112.78244410620796,109.07313237970266L128.89422183566623,97.52984611553921L145.0059995651245,94.31167547866488L161.1177772945828,85.9038105721281L177.22955502404108,80.94472037064628L193.34133275349933,75.86173561929726L209.4531104829576,82.43353693386132L225.56488821241592,46.14828674971728L241.6766659418742,65.05567662252943L257.78844367133246,49.9362364589552L32.22355545891656,91.14513051153017L48.33533318837483,108.32155190576805L64.44711091783311,108.92937976719296L80.5588886472914,110.39394496914446L96.67066637674967,96.49151027679159L112.78244410620796,110.10792623171065L128.89422183566623,105.88736452562969L145.0059995651245,106.79502178511336L161.1177772945828,91.21962250662264L177.22955502404108,95.213871991469L193.34133275349933,86.94849816791822L209.4531104829576,84.86500717348704L225.56488821241592,86.3987624177775L241.6766659418742,77.9355225404691L257.78844367133246,58.10462248122145" fill="none"></path></g><g><path style="fill: none;" stroke="rgb(255, 112, 67)" stroke-width="2px" d="M32.22355545891656,164.30507724156593L48.33533318837483,165.0259840221163L64.44711091783311,165.2627623069082L80.5588886472914,166.0862477582232L96.67066637674967,166.9506325701195L112.78244410620796,167.10212087284674L128.89422183566623,167.80983783291362L145.0059995651245,168.07479983411025L32.22355545891656,72.61193852548232L48.33533318837483,111.7253305874965L64.44711091783311,123.0522733602281L80.5588886472914,131.03601733402377L96.67066637674967,137.8777771447774L112.78244410620796,142.5440623739575L128.89422183566623,147.87757321479432L145.0059995651245,151.8804174208888L161.1177772945828,154.61537814075749L177.22955502404108,157.4210087741372L193.34133275349933,159.47917544556833L209.4531104829576,161.0235412117794L225.56488821241592,163.02664388387743L241.6766659418742,163.41865536148617L257.78844367133246,164.65039668849894L32.22355545891656,61.40758907461271L48.33533318837483,103.16059933672273L64.44711091783311,117.20579859048982L80.5588886472914,126.3233929495592L96.67066637674967,132.71862424022748L112.78244410620796,137.67642644653122L128.89422183566623,142.46481758843913L145.0059995651245,146.72615404597883L161.1177772945828,150.36753255051943L177.22955502404108,152.5453515479736L193.34133275349933,155.374038177229L209.4531104829576,157.57434856993288L225.56488821241592,159.6438315140671L241.6766659418742,160.18944634127936L257.78844367133246,160.83693629394497" fill="none"></path></g></g></g></g></g></g><g transform="translate(39, 177)" clip-path="url(#clip_1)"><clipPath id="clip_1"><rect width="290" height="22"></rect></clipPath><g><g><line x1="0" y1="0" x2="0" y2="5" style="visibility: inherit;" fill="rgb(0, 0, 0)" stroke="rgb(204, 204, 204)" stroke-width="1px"></line><line x1="32.22355545891656" y1="0" x2="32.22355545891656" y2="5" style="visibility: inherit;" fill="rgb(0, 0, 0)" stroke="rgb(204, 204, 204)" stroke-width="1px"></line><line x1="64.44711091783311" y1="0" x2="64.44711091783311" y2="5" style="visibility: inherit;" fill="rgb(0, 0, 0)" stroke="rgb(204, 204, 204)" stroke-width="1px"></line><line x1="96.67066637674967" y1="0" x2="96.67066637674967" y2="5" style="visibility: inherit;" fill="rgb(0, 0, 0)" stroke="rgb(204, 204, 204)" stroke-width="1px"></line><line x1="128.89422183566623" y1="0" x2="128.89422183566623" y2="5" style="visibility: inherit;" fill="rgb(0, 0, 0)" stroke="rgb(204, 204, 204)" stroke-width="1px"></line><line x1="161.1177772945828" y1="0" x2="161.1177772945828" y2="5" style="visibility: inherit;" fill="rgb(0, 0, 0)" stroke="rgb(204, 204, 204)" stroke-width="1px"></line><line x1="193.34133275349933" y1="0" x2="193.34133275349933" y2="5" style="visibility: inherit;" fill="rgb(0, 0, 0)" stroke="rgb(204, 204, 204)" stroke-width="1px"></line><line x1="225.56488821241592" y1="0" x2="225.56488821241592" y2="5" style="visibility: inherit;" fill="rgb(0, 0, 0)" stroke="rgb(204, 204, 204)" stroke-width="1px"></line><line x1="257.78844367133246" y1="0" x2="257.78844367133246" y2="5" style="visibility: inherit;" fill="rgb(0, 0, 0)" stroke="rgb(204, 204, 204)" stroke-width="1px"></line><line x1="290.011999130249" y1="0" x2="290.011999130249" y2="5" style="visibility: inherit;" fill="rgb(0, 0, 0)" stroke="rgb(204, 204, 204)" stroke-width="1px"></line></g><g transform="translate(0, 8)"><text style="text-anchor: middle; visibility: hidden; font-family: Roboto, sans-serif; font-size: 12px; font-weight: 200;" x="0" y="0" dx="0em" dy="0.95em" fill="rgb(255, 255, 255)" stroke="none" stroke-width="1px">-2</text><text style="text-anchor: middle; visibility: inherit; font-family: Roboto, sans-serif; font-size: 12px; font-weight: 200;" x="32.22355545891656" y="0" dx="0em" dy="0.95em" fill="rgb(255, 255, 255)" stroke="none" stroke-width="1px">0</text><text style="text-anchor: middle; visibility: inherit; font-family: Roboto, sans-serif; font-size: 12px; font-weight: 200;" x="64.44711091783311" y="0" dx="0em" dy="0.95em" fill="rgb(255, 255, 255)" stroke="none" stroke-width="1px">2</text><text style="text-anchor: middle; visibility: inherit; font-family: Roboto, sans-serif; font-size: 12px; font-weight: 200;" x="96.67066637674967" y="0" dx="0em" dy="0.95em" fill="rgb(255, 255, 255)" stroke="none" stroke-width="1px">4</text><text style="text-anchor: middle; visibility: inherit; font-family: Roboto, sans-serif; font-size: 12px; font-weight: 200;" x="128.89422183566623" y="0" dx="0em" dy="0.95em" fill="rgb(255, 255, 255)" stroke="none" stroke-width="1px">6</text><text style="text-anchor: middle; visibility: inherit; font-family: Roboto, sans-serif; font-size: 12px; font-weight: 200;" x="161.1177772945828" y="0" dx="0em" dy="0.95em" fill="rgb(255, 255, 255)" stroke="none" stroke-width="1px">8</text><text style="text-anchor: middle; visibility: inherit; font-family: Roboto, sans-serif; font-size: 12px; font-weight: 200;" x="193.34133275349933" y="0" dx="0em" dy="0.95em" fill="rgb(255, 255, 255)" stroke="none" stroke-width="1px">10</text><text style="text-anchor: middle; visibility: inherit; font-family: Roboto, sans-serif; font-size: 12px; font-weight: 200;" x="225.56488821241592" y="0" dx="0em" dy="0.95em" fill="rgb(255, 255, 255)" stroke="none" stroke-width="1px">12</text><text style="text-anchor: middle; visibility: inherit; font-family: Roboto, sans-serif; font-size: 12px; font-weight: 200;" x="257.78844367133246" y="0" dx="0em" dy="0.95em" fill="rgb(255, 255, 255)" stroke="none" stroke-width="1px">14</text><text style="text-anchor: middle; visibility: hidden; font-family: Roboto, sans-serif; font-size: 12px; font-weight: 200;" x="290.011999130249" y="0" dx="0em" dy="0.95em" fill="rgb(255, 255, 255)" stroke="none" stroke-width="1px">16</text></g><line x1="0" y1="0" x2="290.011999130249" y2="0" fill="rgb(0, 0, 0)" stroke="rgb(204, 204, 204)" stroke-width="1px"></line></g></g></g></g></svg>